# xmcd
#
# Track frame offsets:
#	150
#	18549
#	36193
#	50477
#	69453
#	93297
#	111866
#	131884
#	148184
#	165848
#	188216
#	208168
#	224310
#	244223
#	261443
#
# Disc length: 3711 seconds
#
# Revision: 1
# Processed by: cddbd v1.5.2PL0 Copyright (c) Steve Scherf et al.
# Submitted via: audiograbber 1.83.01
#
DISCID=e50e7d0f
DTITLE=Faudel - Faudel - Collection Prestige
DYEAR=2007
DGENRE=Raï
TTITLE0=Tellement Je t'aime
TTITLE1=Lila
TTITLE2=Je Veux Vivre - Bari N'haich
TTITLE3=Salsa Raï (Sin Cadena)
TTITLE4=Ma Vie
TTITLE5=Baïda
TTITLE6=Abadou
TTITLE7=Eray
TTITLE8=Rohi
TTITLE9=Abdel Kader (Live à Bercy)
TTITLE10=Anti
TTITLE11=Maina
TTITLE12=Samra
TTITLE13=Alger USA
TTITLE14=Mon Pays
EXTD=
EXTT0=
EXTT1=
EXTT2=
EXTT3=
EXTT4=
EXTT5=
EXTT6=
EXTT7=
EXTT8=
EXTT9=
EXTT10=
EXTT11=
EXTT12=
EXTT13=
EXTT14=
PLAYORDER=
